<svg width="512" height="512" viewBox="0 0 512 512" fill="none" xmlns="http://www.w3.org/2000/svg">
  <defs>
    <linearGradient id="bg" x1="0" y1="0" x2="0" y2="512" gradientUnits="userSpaceOnUse">
      <stop offset="0" stop-color="#3399ff"/>
      <stop offset="1" stop-color="#0060df"/>
    </linearGradient>
  </defs>
  <rect width="512" height="512" rx="116" fill="url(#bg)"/>
  <!-- Speech bubble -->
  <path fill="#ffffff" d="M120 112h272a48 48 0 0 1 48 48v160a48 48 0 0 1-48 48H236l-78 70a16 16 0 0 1-26-12v-58h-12a48 48 0 0 1-48-48V160a48 48 0 0 1 48-48Z"/>
  <!-- Flag pole -->
  <rect x="196" y="168" width="20" height="160" rx="10" fill="#0060df"/>
  <!-- Pennant -->
  <path fill="#0a84ff" d="M216 176h128l-40 38 40 38H216z"/>
</svg>
